<?xml version="1.0" encoding="utf-8"?>
<!-- Generator: Adobe Illustrator 14.0.0, SVG Export Plug-In . SVG Version: 6.00 Build 43363)  -->
<!DOCTYPE svg PUBLIC "-//W3C//DTD SVG 1.1//EN" "http://www.w3.org/Graphics/SVG/1.1/DTD/svg11.dtd">
<svg version="1.1" id="Layer_1" xmlns="http://www.w3.org/2000/svg" xmlns:xlink="http://www.w3.org/1999/xlink" x="0px" y="0px"
	 width="1157.97px" height="448.669px" viewBox="0 0 1157.97 448.669" enable-background="new 0 0 1157.97 448.669"
	 xml:space="preserve">
<g>
	<defs>
		<rect id="SVGID_1_" y="0" width="1157.97" height="448.669"/>
	</defs>
	<clipPath id="SVGID_2_">
		<use xlink:href="#SVGID_1_"  overflow="visible"/>
	</clipPath>
	<g clip-path="url(#SVGID_2_)">
		<defs>
			<rect id="SVGID_3_" y="0" width="1157.973" height="448.669"/>
		</defs>
		<clipPath id="SVGID_4_">
			<use xlink:href="#SVGID_3_"  overflow="visible"/>
		</clipPath>
		<g opacity="0.5479" clip-path="url(#SVGID_4_)" enable-background="new    ">
			<g>
				<defs>
					<rect id="SVGID_5_" x="63.394" y="100.808" width="47.436" height="47.397"/>
				</defs>
				<clipPath id="SVGID_6_">
					<use xlink:href="#SVGID_5_"  overflow="visible"/>
				</clipPath>
				
					<ellipse clip-path="url(#SVGID_6_)" fill="none" stroke="#52C1EC" stroke-width="2" stroke-linecap="round" stroke-dasharray="1,5" cx="87.111" cy="124.506" rx="22.718" ry="22.699"/>
			</g>
		</g>
		<g opacity="0.5479" clip-path="url(#SVGID_4_)" enable-background="new    ">
			<g>
				<defs>
					<rect id="SVGID_7_" x="1110.54" y="344.108" width="47.431" height="47.396"/>
				</defs>
				<clipPath id="SVGID_8_">
					<use xlink:href="#SVGID_7_"  overflow="visible"/>
				</clipPath>
				
					<ellipse clip-path="url(#SVGID_8_)" fill="none" stroke="#52C1EC" stroke-width="2" stroke-dasharray="2,3" cx="1134.254" cy="367.806" rx="22.719" ry="22.698"/>
			</g>
		</g>
		<g opacity="0.5479" clip-path="url(#SVGID_4_)" enable-background="new    ">
			<g>
				<defs>
					<rect id="SVGID_9_" x="513.988" y="0" width="46.435" height="46.397"/>
				</defs>
				<clipPath id="SVGID_10_">
					<use xlink:href="#SVGID_9_"  overflow="visible"/>
				</clipPath>
				<ellipse clip-path="url(#SVGID_10_)" fill="none" stroke="#52C1EC" cx="537.206" cy="23.199" rx="22.718" ry="22.699"/>
			</g>
		</g>
		<g opacity="0.5479" clip-path="url(#SVGID_4_)" enable-background="new    ">
			<g>
				<defs>
					<rect id="SVGID_11_" x="877.471" y="265.872" width="46.435" height="46.396"/>
				</defs>
				<clipPath id="SVGID_12_">
					<use xlink:href="#SVGID_11_"  overflow="visible"/>
				</clipPath>
				<ellipse clip-path="url(#SVGID_12_)" fill="none" stroke="#52C1EC" cx="900.688" cy="289.07" rx="22.719" ry="22.698"/>
			</g>
		</g>
		<g opacity="0.5479" clip-path="url(#SVGID_4_)" enable-background="new    ">
			<g>
				<defs>
					<rect id="SVGID_13_" y="249.557" width="46.436" height="46.397"/>
				</defs>
				<clipPath id="SVGID_14_">
					<use xlink:href="#SVGID_13_"  overflow="visible"/>
				</clipPath>
				<ellipse clip-path="url(#SVGID_14_)" fill="none" stroke="#52C1EC" cx="23.218" cy="272.755" rx="22.718" ry="22.698"/>
			</g>
		</g>
		<g opacity="0.2543" clip-path="url(#SVGID_4_)" enable-background="new    ">
			<g>
				<defs>
					<rect id="SVGID_15_" x="30.892" y="144.941" width="48.546" height="107.379"/>
				</defs>
				<clipPath id="SVGID_16_">
					<use xlink:href="#SVGID_15_"  overflow="visible"/>
				</clipPath>
				
					<line clip-path="url(#SVGID_16_)" fill="none" stroke="#52C1EC" stroke-linecap="square" x1="78.777" y1="145.601" x2="31.551" y2="251.661"/>
			</g>
		</g>
		<g opacity="0.2543" clip-path="url(#SVGID_4_)" enable-background="new    ">
			<g>
				<defs>
					<rect id="SVGID_17_" x="21.854" y="96.166" width="45.185" height="19.706"/>
				</defs>
				<clipPath id="SVGID_18_">
					<use xlink:href="#SVGID_17_"  overflow="visible"/>
				</clipPath>
				
					<line clip-path="url(#SVGID_18_)" fill="none" stroke="#52C1EC" stroke-linecap="square" x1="22.508" y1="96.82" x2="66.384" y2="115.217"/>
			</g>
		</g>
		<g opacity="0.2543" clip-path="url(#SVGID_4_)" enable-background="new    ">
			<g>
				<defs>
					<rect id="SVGID_19_" x="741.595" y="184.36" width="139.812" height="94.584"/>
				</defs>
				<clipPath id="SVGID_20_">
					<use xlink:href="#SVGID_19_"  overflow="visible"/>
				</clipPath>
				
					<line clip-path="url(#SVGID_20_)" fill="none" stroke="#52C1EC" stroke-linecap="square" x1="880.712" y1="278.25" x2="742.289" y2="185.055"/>
			</g>
		</g>
		<g opacity="0.2543" clip-path="url(#SVGID_4_)" enable-background="new    ">
			<g>
				<defs>
					<rect id="SVGID_21_" x="922.064" y="212.356" width="208.566" height="70.253"/>
				</defs>
				<clipPath id="SVGID_22_">
					<use xlink:href="#SVGID_21_"  overflow="visible"/>
				</clipPath>
				
					<line clip-path="url(#SVGID_22_)" fill="none" stroke="#52C1EC" stroke-linecap="square" x1="1129.995" y1="212.989" x2="922.696" y2="281.977"/>
			</g>
		</g>
		<g opacity="0.2543" clip-path="url(#SVGID_4_)" enable-background="new    ">
			<g>
				<defs>
					<rect id="SVGID_23_" x="45.422" y="272.775" width="271.639" height="8.475"/>
				</defs>
				<clipPath id="SVGID_24_">
					<use xlink:href="#SVGID_23_"  overflow="visible"/>
				</clipPath>
				
					<line clip-path="url(#SVGID_24_)" fill="none" stroke="#52C1EC" stroke-linecap="square" x1="316.548" y1="273.288" x2="45.936" y2="280.735"/>
			</g>
		</g>
		<g opacity="0.2543" clip-path="url(#SVGID_4_)" enable-background="new    ">
			<g>
				<defs>
					<rect id="SVGID_25_" x="101.161" y="140.675" width="226.578" height="115.201"/>
				</defs>
				<clipPath id="SVGID_26_">
					<use xlink:href="#SVGID_25_"  overflow="visible"/>
				</clipPath>
				
					<line clip-path="url(#SVGID_26_)" fill="none" stroke="#52C1EC" stroke-linecap="square" x1="327.067" y1="255.205" x2="101.833" y2="141.347"/>
			</g>
		</g>
		<g opacity="0.2543" clip-path="url(#SVGID_4_)" enable-background="new    ">
			<g>
				<defs>
					<rect id="SVGID_27_" x="919.765" y="298.904" width="198.255" height="56.231"/>
				</defs>
				<clipPath id="SVGID_28_">
					<use xlink:href="#SVGID_27_"  overflow="visible"/>
				</clipPath>
				
					<line clip-path="url(#SVGID_28_)" fill="none" stroke="#52C1EC" stroke-linecap="square" x1="1117.402" y1="354.519" x2="920.381" y2="299.519"/>
			</g>
		</g>
		<g opacity="0.2543" clip-path="url(#SVGID_4_)" enable-background="new    ">
			<g>
				<defs>
					<rect id="SVGID_29_" x="360.444" y="42.758" width="166.102" height="223.078"/>
				</defs>
				<clipPath id="SVGID_30_">
					<use xlink:href="#SVGID_29_"  overflow="visible"/>
				</clipPath>
				
					<line clip-path="url(#SVGID_30_)" fill="none" stroke="#52C1EC" stroke-linecap="square" x1="525.847" y1="43.458" x2="361.144" y2="265.137"/>
			</g>
		</g>
		<g opacity="0.5" clip-path="url(#SVGID_4_)">
			<g>
				<defs>
					<rect id="SVGID_31_" x="1124.32" y="196.857" width="22.71" height="22.698"/>
				</defs>
				<clipPath id="SVGID_32_">
					<use xlink:href="#SVGID_31_"  overflow="visible"/>
				</clipPath>
				<path clip-path="url(#SVGID_32_)" fill-rule="evenodd" clip-rule="evenodd" fill="#52C1EC" d="M1135.674,196.857
					c6.273,0,11.358,5.082,11.358,11.349c0,6.268-5.085,11.35-11.358,11.35c-6.272,0-11.358-5.082-11.358-11.35
					C1124.316,201.939,1129.402,196.857,1135.674,196.857"/>
			</g>
		</g>
		<g opacity="0.5" clip-path="url(#SVGID_4_)">
			<g>
				<defs>
					<rect id="SVGID_33_" x="0.79" y="80.108" width="22.718" height="22.699"/>
				</defs>
				<clipPath id="SVGID_34_">
					<use xlink:href="#SVGID_33_"  overflow="visible"/>
				</clipPath>
				<path clip-path="url(#SVGID_34_)" fill-rule="evenodd" clip-rule="evenodd" fill="#52C1EC" d="M12.149,80.109
					c6.273,0,11.359,5.081,11.359,11.349s-5.086,11.349-11.359,11.349S0.79,97.726,0.79,91.458S5.876,80.109,12.149,80.109"/>
			</g>
		</g>
		<g opacity="0.5" clip-path="url(#SVGID_4_)">
			<g>
				<defs>
					<rect id="SVGID_35_" x="766.512" y="436.611" width="11.358" height="12.059"/>
				</defs>
				<clipPath id="SVGID_36_">
					<use xlink:href="#SVGID_35_"  overflow="visible"/>
				</clipPath>
				<path clip-path="url(#SVGID_36_)" fill-rule="evenodd" clip-rule="evenodd" fill="#52C1EC" d="M772.191,436.611
					c3.138,0,5.681,2.699,5.681,6.029s-2.543,6.03-5.681,6.03c-3.137,0-5.679-2.7-5.679-6.03S769.054,436.611,772.191,436.611"/>
			</g>
		</g>
		<g opacity="0.5" clip-path="url(#SVGID_4_)">
			<g>
				<defs>
					<rect id="SVGID_37_" x="887.91" y="13.378" width="11.359" height="12.059"/>
				</defs>
				<clipPath id="SVGID_38_">
					<use xlink:href="#SVGID_37_"  overflow="visible"/>
				</clipPath>
				<path clip-path="url(#SVGID_38_)" fill-rule="evenodd" clip-rule="evenodd" fill="#52C1EC" d="M893.589,13.378
					c3.137,0,5.68,2.699,5.68,6.029s-2.543,6.03-5.68,6.03s-5.68-2.7-5.68-6.03S890.453,13.378,893.589,13.378"/>
			</g>
		</g>
		<g opacity="0.5" clip-path="url(#SVGID_4_)">
			<g>
				<defs>
					<rect id="SVGID_39_" x="422.907" y="306.094" width="11.359" height="12.059"/>
				</defs>
				<clipPath id="SVGID_40_">
					<use xlink:href="#SVGID_39_"  overflow="visible"/>
				</clipPath>
				<path clip-path="url(#SVGID_40_)" fill-rule="evenodd" clip-rule="evenodd" fill="#52C1EC" d="M428.586,306.094
					c3.137,0,5.68,2.699,5.68,6.029c0,3.329-2.543,6.03-5.68,6.03c-3.136,0-5.679-2.701-5.679-6.03
					C422.907,308.793,425.45,306.094,428.586,306.094"/>
			</g>
		</g>
		<g opacity="0.5" clip-path="url(#SVGID_4_)">
			<g>
				<defs>
					<rect id="SVGID_41_" x="674.222" y="279.848" width="11.357" height="12.06"/>
				</defs>
				<clipPath id="SVGID_42_">
					<use xlink:href="#SVGID_41_"  overflow="visible"/>
				</clipPath>
				<path clip-path="url(#SVGID_42_)" fill-rule="evenodd" clip-rule="evenodd" fill="#52C1EC" d="M679.901,279.848
					c3.138,0,5.68,2.7,5.68,6.029c0,3.33-2.542,6.03-5.68,6.03c-3.137,0-5.68-2.7-5.68-6.03
					C674.221,282.548,676.764,279.848,679.901,279.848"/>
			</g>
		</g>
		<g opacity="0.5" clip-path="url(#SVGID_4_)">
			<g>
				<defs>
					<rect id="SVGID_43_" x="341.265" y="32.292" width="11.359" height="12.059"/>
				</defs>
				<clipPath id="SVGID_44_">
					<use xlink:href="#SVGID_43_"  overflow="visible"/>
				</clipPath>
				<path clip-path="url(#SVGID_44_)" fill-rule="evenodd" clip-rule="evenodd" fill="#52C1EC" d="M346.945,32.292
					c3.137,0,5.68,2.699,5.68,6.029s-2.543,6.03-5.68,6.03c-3.137,0-5.679-2.7-5.679-6.03S343.808,32.292,346.945,32.292"/>
			</g>
		</g>
		<g opacity="0.5" clip-path="url(#SVGID_4_)">
			<g>
				<defs>
					<rect id="SVGID_45_" x="242.585" y="155.006" width="11.359" height="12.059"/>
				</defs>
				<clipPath id="SVGID_46_">
					<use xlink:href="#SVGID_45_"  overflow="visible"/>
				</clipPath>
				<path clip-path="url(#SVGID_46_)" fill-rule="evenodd" clip-rule="evenodd" fill="#52C1EC" d="M248.265,155.006
					c3.137,0,5.679,2.7,5.679,6.029c0,3.33-2.542,6.03-5.679,6.03c-3.137,0-5.68-2.7-5.68-6.03
					C242.585,157.707,245.128,155.006,248.265,155.006"/>
			</g>
		</g>
		<g opacity="0.5" clip-path="url(#SVGID_4_)">
			<g>
				<defs>
					<rect id="SVGID_47_" x="722.497" y="166.356" width="22.718" height="22.698"/>
				</defs>
				<clipPath id="SVGID_48_">
					<use xlink:href="#SVGID_47_"  overflow="visible"/>
				</clipPath>
				<path clip-path="url(#SVGID_48_)" fill-rule="evenodd" clip-rule="evenodd" fill="#52C1EC" d="M733.855,166.356
					c6.273,0,11.359,5.081,11.359,11.349s-5.086,11.349-11.359,11.349c-6.272,0-11.357-5.081-11.357-11.349
					S727.583,166.356,733.855,166.356"/>
			</g>
		</g>
		<g opacity="0.5" clip-path="url(#SVGID_4_)">
			<g>
				<defs>
					<rect id="SVGID_49_" x="973.101" y="384.83" width="22.718" height="22.699"/>
				</defs>
				<clipPath id="SVGID_50_">
					<use xlink:href="#SVGID_49_"  overflow="visible"/>
				</clipPath>
				<path clip-path="url(#SVGID_50_)" fill-rule="evenodd" clip-rule="evenodd" fill="#52C1EC" d="M984.459,384.83
					c6.273,0,11.359,5.081,11.359,11.351c0,6.267-5.086,11.348-11.359,11.348c-6.272,0-11.357-5.081-11.357-11.348
					C973.102,389.911,978.187,384.83,984.459,384.83"/>
			</g>
		</g>
		<g opacity="0.5479" clip-path="url(#SVGID_4_)" enable-background="new    ">
			<g>
				<defs>
					<rect id="SVGID_51_" x="316.128" y="249.057" width="47.435" height="47.397"/>
				</defs>
				<clipPath id="SVGID_52_">
					<use xlink:href="#SVGID_51_"  overflow="visible"/>
				</clipPath>
				
					<ellipse clip-path="url(#SVGID_52_)" fill="none" stroke="#52C1EC" stroke-width="2" stroke-linecap="round" stroke-dasharray="1,5" cx="339.846" cy="272.755" rx="22.718" ry="22.698"/>
			</g>
		</g>
	</g>
</g>
</svg>
