<?xml version="1.0" encoding="utf-8"?>
<!-- Generator: Adobe Illustrator 14.0.0, SVG Export Plug-In . SVG Version: 6.00 Build 43363)  -->
<!DOCTYPE svg PUBLIC "-//W3C//DTD SVG 1.1//EN" "http://www.w3.org/Graphics/SVG/1.1/DTD/svg11.dtd">
<svg version="1.1" id="Layer_1" xmlns="http://www.w3.org/2000/svg" xmlns:xlink="http://www.w3.org/1999/xlink" x="0px" y="0px"
	 width="1445.14px" height="167.139px" viewBox="0 0 1445.14 167.139" enable-background="new 0 0 1445.14 167.139"
	 xml:space="preserve">
<g>
	<defs>
		<rect id="SVGID_1_" y="0" width="1445.14" height="167.139"/>
	</defs>
	<clipPath id="SVGID_2_">
		<use xlink:href="#SVGID_1_"  overflow="visible"/>
	</clipPath>
	<g clip-path="url(#SVGID_2_)">
		<defs>
			<rect id="SVGID_3_" y="0" width="1445.14" height="167.139"/>
		</defs>
		<clipPath id="SVGID_4_">
			<use xlink:href="#SVGID_3_"  overflow="visible"/>
		</clipPath>
		<g opacity="0.1" clip-path="url(#SVGID_4_)" enable-background="new    ">
			<g>
				<defs>
					<rect id="SVGID_5_" y="27.007" width="1441.74" height="140.131"/>
				</defs>
				<clipPath id="SVGID_6_">
					<use xlink:href="#SVGID_5_"  overflow="visible"/>
				</clipPath>
				<path clip-path="url(#SVGID_6_)" fill="#FFFFFF" d="M0.504,61.11C57.133,80.273,98.255,92.884,123.87,98.94
					c57.632,13.63,110.473,18.425,148.211,21.594c39.322,3.301,124.602,2.343,188.992-1.796
					c25.735-1.652,57.702-5.291,95.901-10.911c38.821-6.155,65.446-10.744,79.873-13.761c27.114-5.667,75.702-17.488,90.807-20.863
					c52.864-11.812,91.233-23.596,128.719-30.225c66.365-11.734,99.352-13.382,154.86-15.472
					c49.521,1.045,86.205,2.698,110.052,4.956c40.467,3.832,87.385,12.434,114.164,16.917
					c50.454,8.444,118.95,25.127,205.485,50.049l0.306,67.209H1.168L0.504,61.11z"/>
				<path clip-path="url(#SVGID_6_)" fill="none" stroke="#FFFFFF" stroke-miterlimit="10" d="M0.504,61.11
					C57.133,80.273,98.255,92.884,123.87,98.94c57.632,13.63,110.473,18.425,148.211,21.594
					c39.322,3.301,124.602,2.343,188.992-1.796c25.735-1.652,57.702-5.291,95.901-10.911c38.821-6.155,65.446-10.744,79.873-13.761
					c27.114-5.667,75.702-17.488,90.807-20.863c52.864-11.812,91.233-23.596,128.719-30.225
					c66.365-11.734,99.352-13.382,154.86-15.472c49.521,1.045,86.205,2.698,110.052,4.956
					c40.467,3.832,87.385,12.434,114.164,16.917c50.454,8.444,118.95,25.127,205.485,50.049l0.306,67.209H1.168L0.504,61.11z"/>
			</g>
		</g>
		<g opacity="0.1" clip-path="url(#SVGID_4_)">
			<g>
				<defs>
					<rect id="SVGID_7_" x="0.004" y="0" width="1209.256" height="167.132"/>
				</defs>
				<clipPath id="SVGID_8_">
					<use xlink:href="#SVGID_7_"  overflow="visible"/>
				</clipPath>
				<path clip-path="url(#SVGID_8_)" fill="#FFFFFF" d="M1209.209,166.618c0,0-495.271-49.186-575.901-54.367
					c-32.226-2.07-72.256-6.626-120.089-13.663c-48.613-7.709-81.953-13.454-100.019-17.231
					c-33.953-7.096-94.796-21.899-113.709-26.125c-66.198-14.79-114.245-29.548-161.184-37.847
					C79.797,7.038,42.006,2.954,0.504,0.529v166.103L1209.209,166.618z"/>
				<path clip-path="url(#SVGID_8_)" fill="none" stroke="#FFFFFF" stroke-miterlimit="10" d="M1209.209,166.618
					c0,0-495.271-49.186-575.901-54.367c-32.226-2.07-72.256-6.626-120.089-13.663c-48.613-7.709-81.953-13.454-100.019-17.231
					c-33.953-7.096-94.796-21.899-113.709-26.125c-66.198-14.79-114.245-29.548-161.184-37.847
					C79.797,7.038,42.006,2.954,0.504,0.529v166.103L1209.209,166.618z"/>
			</g>
		</g>
		<g opacity="0.1" clip-path="url(#SVGID_4_)">
			<g>
				<defs>
					<rect id="SVGID_9_" x="0.004" y="27.007" width="1445.136" height="140.132"/>
				</defs>
				<clipPath id="SVGID_10_">
					<use xlink:href="#SVGID_9_"  overflow="visible"/>
				</clipPath>
				<path clip-path="url(#SVGID_10_)" fill="#FFFFFF" d="M1441.239,166.638c0,0-377.867-98.543-458.787-109.848
					c-42.949-6.002-118.197-17.518-183.099-22.649c-38.244-3.023-97.08-5.234-176.501-6.634
					c-89.027,2.798-141.932,5.003-248.369,20.715c-60.119,8.873-121.656,24.651-206.442,40.464
					c-24.224,4.519-102.15,20.346-145.636,27.933c-5.987,1.045-13.294,2.232-21.9,3.559v46.154L1441.239,166.638z"/>
				<path clip-path="url(#SVGID_10_)" fill="none" stroke="#FFFFFF" stroke-miterlimit="10" d="M1441.239,166.638
					c0,0-377.867-98.543-458.787-109.848c-42.949-6.002-118.197-17.518-183.099-22.649c-38.244-3.023-97.08-5.234-176.501-6.634
					c-89.027,2.798-141.932,5.003-248.369,20.715c-60.119,8.873-121.656,24.651-206.442,40.464
					c-24.224,4.519-102.15,20.346-145.636,27.933c-5.987,1.045-13.294,2.232-21.9,3.559v46.154L1441.239,166.638z"/>
			</g>
		</g>
		<g opacity="0.1" clip-path="url(#SVGID_4_)">
			<g>
				<defs>
					<rect id="SVGID_11_" x="1.308" y="19.01" width="1440.432" height="148.128"/>
				</defs>
				<clipPath id="SVGID_12_">
					<use xlink:href="#SVGID_11_"  overflow="visible"/>
				</clipPath>
				<path clip-path="url(#SVGID_12_)" fill="#FFFFFF" d="M1403.965,25.715c-29.859-2.828-75.798-4.896-137.808-6.205
					c-69.509,2.617-110.816,4.68-193.92,19.374c-46.939,8.3-94.985,23.058-161.185,37.848
					c-18.913,4.225-79.756,19.028-113.709,26.125c-18.064,3.776-51.406,9.521-100.019,17.23
					c-47.833,7.037-87.863,11.593-120.088,13.663c-80.631,5.182-575.901,32.887-575.901,32.887h1439.901V30.03
					C1428.656,28.353,1416.081,26.861,1403.965,25.715"/>
				<path clip-path="url(#SVGID_12_)" fill="none" stroke="#FFFFFF" stroke-miterlimit="10" d="M1403.965,25.715
					c-29.859-2.828-75.798-4.896-137.808-6.205c-69.509,2.617-110.816,4.68-193.92,19.374c-46.939,8.3-94.985,23.058-161.185,37.848
					c-18.913,4.225-79.756,19.028-113.709,26.125c-18.064,3.776-51.406,9.521-100.019,17.23
					c-47.833,7.037-87.863,11.593-120.088,13.663c-80.631,5.182-575.901,32.887-575.901,32.887h1439.901V30.03
					C1428.656,28.353,1416.081,26.861,1403.965,25.715z"/>
			</g>
		</g>
	</g>
</g>
</svg>
